<mxfile host="app.diagrams.net" modified="2022-10-12T22:44:47.092Z" agent="5.0 (Windows NT 10.0; Win64; x64) AppleWebKit/537.36 (KHTML, like Gecko) Chrome/106.0.0.0 Safari/537.36" etag="VJIc9M9XNcGItzPPxcML" version="20.4.0" type="github">
  <diagram id="LW41xYG0_JcDAr8Sbvpv" name="Seite-1">
    <mxGraphModel dx="2171" dy="1177" grid="1" gridSize="10" guides="1" tooltips="1" connect="1" arrows="1" fold="1" page="1" pageScale="1" pageWidth="827" pageHeight="1169" math="0" shadow="0">
      <root>
        <mxCell id="0" />
        <mxCell id="1" parent="0" />
      </root>
    </mxGraphModel>
  </diagram>
</mxfile>
